<svg width="1920" height="960" viewBox="0 0 1920 960" fill="none" xmlns="http://www.w3.org/2000/svg">
<g clip-path="url(#clip0_1348_14784)">
<path d="M1554.24 674.59C1550.81 793.729 1596.26 882.238 1678.2 915.973C1714.24 930.787 1757.57 936.042 1774.5 927.579C1925.15 852.553 1958.4 715.857 1854.56 598.691C1741.72 471.466 1558.77 517.678 1554.24 674.59Z" fill="#F8F5F4"/>
<path fill-rule="evenodd" clip-rule="evenodd" d="M-1160.89 832.634C-1358.07 727.188 -1503.65 563.429 -1627.33 308.067C-1806.76 -62.4973 -1747.45 -292.406 -1474.43 -284.533C-1389.49 -282.083 -1343.79 -257.1 -1264.51 -169.709C-1146.04 -39.1051 -1003.2 48.42 -965.961 13.2673C-951.582 -0.304978 -978.246 -77.2891 -1025.2 -157.801C-1128.67 -335.243 -1131.66 -438.912 -1035.07 -498.294C-980.027 -532.144 -858.315 -555.772 -790.029 -557.182C-571.893 -561.683 -511.067 -417.361 -295.186 -385.753C-5.90691 -343.4 246.678 -385.177 429.811 -305.137C678.322 -196.512 749.563 22.2951 574.578 139.46C463.419 213.866 469.669 282.282 601.027 429.095C708.812 549.529 706.637 650.197 591.517 758.864C511.36 834.527 363.627 846.717 206.413 842.184C49.1976 837.65 -125.321 742.5 -321.704 533.799C-510.375 333.329 -692.945 244.325 -778.432 311.218C-842.283 361.168 -840.035 428.407 -770.824 539.78C-698.51 656.127 -700.465 804.952 -775.121 868.698C-855.5 937.347 -988.367 924.929 -1160.89 832.634ZM-1532.73 697.606C-1665.65 544.771 -1776.24 313.209 -1756.28 229.438C-1748.38 196.291 -1715.79 238.221 -1664.74 347.129C-1621.16 440.166 -1517.25 589.919 -1433.89 679.946C-1308.37 815.425 -1293.18 843.291 -1345.59 841.78C-1381.94 840.731 -1461.64 779.33 -1532.73 697.606ZM520.507 -294.905C370.332 -399.42 357.863 -459.429 497.382 -406.224C595.036 -369.002 725.351 -235.478 686.195 -212.79C671.848 -204.526 597.306 -241.476 520.507 -294.905ZM-1371.09 -357.313C-1380.79 -384.929 -1374.32 -421.091 -1356.7 -437.725C-1305.86 -485.714 -1212.57 -449.679 -1214.5 -382.804C-1216.72 -305.712 -1345.6 -284.701 -1371.09 -357.313ZM-1556.8 -382.602C-1539.71 -429.38 -1471.65 -435.67 -1470.56 -390.613C-1470.16 -373.914 -1492.73 -356.209 -1520.69 -351.22C-1552.5 -345.614 -1566.03 -357.352 -1556.8 -382.602Z" fill="#F8F5F4"/>
<path fill-rule="evenodd" clip-rule="evenodd" d="M1290.55 -29.4478C1440.61 -195.21 1634.76 -296.793 1912.47 -354.932C2315.46 -439.256 2524.16 -326.031 2450.39 -63.0497C2427.44 18.7707 2392.13 57.0587 2288.14 112.807C2132.73 196.119 2013.21 313.502 2038.29 358.148C2047.98 375.386 2129.13 368.163 2218.62 342.112C2415.84 284.703 2517.14 306.915 2551.36 415.01C2570.87 476.613 2564.31 600.423 2549.14 667.017C2500.67 879.748 2345.91 903.804 2262.95 1105.6C2151.79 1376.01 2131.14 1631.19 2009.13 1789.48C1843.54 2004.28 1613.99 2020.4 1542.7 1822.24C1497.44 1696.37 1429.55 1685.86 1255.29 1777.75C1112.33 1853.15 1015.19 1826.66 937.643 1688.64C883.648 1592.55 1981.65 1313.47 2024.13 1162.04C2066.61 1010.6 2068.57 866.183 2054.63 731.035C2038.29 572.535 1978.63 506.535 1880.13 451.535C1768.63 389.276 1601.13 396.035 1480.19 419.94C1354.17 444.849 1205.88 423.972 1162.11 336.099C1114.98 241.485 1159.21 115.583 1290.55 -29.4478ZM1511.62 -357.51C1692.1 -449.445 1943.55 -500.65 2020 -461.001C2050.24 -445.303 2001.67 -423.84 1883.64 -400.693C1782.81 -380.94 1612.35 -316.402 1504.81 -257.333C1342.96 -168.362 1312.25 -160.378 1326.41 -210.866C1336.23 -245.878 1415.11 -308.325 1511.62 -357.51ZM1977.23 1875C2115.01 1754.61 2176.25 1757.05 2090.84 1879.52C2031.07 1965.25 1869.96 2059.35 1857.43 2015.86C1852.89 1999.94 1906.79 1936.57 1977.23 1875ZM2495.97 54.8467C2525.11 52.1236 2558.63 67.1637 2570.5 88.2902C2604.75 149.239 2547.19 231.022 2482.77 212.952C2408.51 192.122 2419.35 61.9851 2495.97 54.8467ZM2565.49 -119.21C2606.73 -91.2928 2596.35 -23.7428 2552.37 -33.5918C2536.07 -37.2502 2524.36 -63.4348 2526.3 -91.7764C2528.56 -123.994 2543.23 -134.275 2565.49 -119.21Z" fill="#F8F5F4"/>
<path d="M1746.74 819.169C1746.54 821.969 1745.94 824.669 1744.94 827.169C1741.94 835.069 1732.84 836.569 1726.94 832.069C1724.94 830.569 1723.44 828.369 1722.04 826.269C1720.64 824.269 1720.74 821.869 1721.84 819.569C1723.64 815.769 1726.24 812.569 1729.54 809.969C1731.84 808.269 1734.34 807.569 1737.24 808.269C1737.94 808.469 1738.64 808.569 1739.34 808.569C1742.34 808.669 1744.34 810.269 1745.34 812.969C1746.04 814.869 1746.34 817.069 1746.74 819.169ZM1740.44 821.869C1740.54 818.269 1739.44 815.369 1736.04 813.469C1735.24 813.069 1734.64 812.869 1733.84 813.169C1731.14 814.169 1728.94 815.869 1727.24 818.069C1724.34 821.869 1724.44 824.569 1727.54 828.069C1727.84 828.469 1728.14 828.769 1728.54 829.069C1730.64 830.669 1732.94 831.469 1735.64 830.469C1738.44 829.469 1739.74 827.569 1740.04 824.769C1740.24 823.869 1740.34 822.869 1740.44 821.869Z" fill="black"/>
<path d="M74.8453 868.452C73.3998 871.448 72.6569 875.345 73.8355 879.368C74.5759 881.931 76.4228 883.466 79.0754 883.875C79.4173 883.91 79.6942 883.904 79.9949 884.003C81.929 884.684 83.7381 884.558 85.552 883.707C87.8725 882.631 89.9271 881.113 91.2854 878.972C93.3434 875.727 92.9943 870.683 90.6144 867.263C89.6459 865.92 88.3893 865.032 86.8621 864.427C82.7519 862.73 77.5207 864.235 74.8453 868.452ZM79.0207 878.654C78.5748 875.914 78.9249 873.497 79.9176 871.215C80.5873 869.729 81.6589 869.043 83.2148 869.029C83.8099 868.952 84.4525 869.087 85.0302 869.18C88.0072 869.795 89.58 873.34 87.9336 875.936C86.1637 878.726 82.376 879.963 79.0207 878.654Z" fill="black"/>
<path d="M1500.76 317.383C1500.57 317.275 1500.49 317.221 1500.39 317.194C1498.39 316.411 1497.47 314.763 1497.04 312.818C1496.63 311.008 1498.12 308.901 1500.01 308.468C1500.76 308.279 1501.49 308.333 1502.25 308.549C1503.84 309.036 1505.09 309.981 1506.06 311.332C1506.25 311.602 1506.46 311.899 1506.68 312.196C1506.9 311.953 1506.82 311.71 1506.82 311.494C1506.9 309.927 1506.98 308.333 1507.33 306.794C1507.57 305.713 1507.9 304.659 1508.54 303.741C1509.19 302.849 1510 302.228 1511.11 302.039C1511.95 301.904 1512.65 302.12 1513.24 302.687C1513.89 303.282 1514.3 304.038 1514.57 304.875C1515.22 306.902 1515.22 308.901 1514.6 310.927C1514.54 311.143 1514.49 311.386 1514.51 311.656C1514.7 311.521 1514.87 311.359 1515.05 311.224C1515.89 310.603 1516.7 309.954 1517.57 309.387C1518.51 308.739 1519.59 308.468 1520.75 308.549C1523.29 308.685 1525.54 311.602 1524.35 314.25C1523.59 315.978 1522.32 317.167 1520.67 318.005C1520.32 318.194 1519.97 318.356 1519.62 318.518C1519.59 318.518 1519.59 318.545 1519.57 318.626C1519.81 318.68 1520.05 318.761 1520.3 318.815C1521.4 319.058 1522.43 319.49 1523.35 320.166C1523.83 320.544 1524.24 320.976 1524.48 321.543C1525.02 322.84 1524.73 324.056 1523.59 324.893C1522.46 325.731 1521.19 326.244 1519.78 326.433C1519.05 326.541 1518.32 326.622 1517.59 326.703C1516.35 326.811 1515.19 326.541 1513.97 326.055C1513.95 326.298 1513.92 326.487 1513.89 326.676C1513.76 328.945 1513.24 331.161 1512.46 333.295C1512.38 333.538 1512.27 333.781 1512.16 334.024C1511.7 335.024 1510.95 335.618 1509.89 335.888C1508.79 336.185 1507.87 335.888 1507.17 335.024C1506.57 334.321 1506.17 333.511 1505.98 332.619C1505.55 330.296 1505.57 327.973 1506.03 325.677C1506.09 325.407 1506.11 325.136 1506.17 324.785C1505.98 324.866 1505.84 324.893 1505.71 324.974C1504.22 325.731 1502.74 326.487 1501.25 327.216C1500.74 327.46 1500.25 327.73 1499.74 327.946C1499.25 328.135 1498.79 328.351 1498.28 328.459C1496.55 328.837 1495.2 327.757 1495.14 325.893C1495.12 325.001 1495.33 324.164 1495.69 323.38C1496.68 321.003 1498.17 319.058 1500.36 317.653C1500.47 317.572 1500.57 317.518 1500.76 317.383Z" fill="#F7D046"/>
<path d="M1514.59 319.345C1514.54 320.802 1513.87 322.211 1512.55 323.257C1511.68 323.95 1510.64 324.232 1509.53 324.15C1508.85 324.103 1508.22 323.845 1507.66 323.457C1506.26 322.505 1505.45 321.189 1505.21 319.521C1505.1 318.839 1505.12 318.17 1505.26 317.5C1505.45 316.537 1505.91 315.726 1506.66 315.091C1507.44 314.422 1508.35 314.022 1509.37 313.916C1510.04 313.846 1510.68 313.987 1511.3 314.269C1511.97 314.574 1512.58 314.974 1513.1 315.491C1514.1 316.478 1514.57 317.7 1514.59 319.345Z" fill="black"/>
<path d="M288.622 243.488C288.664 243.29 288.688 243.203 288.681 243.1C288.799 241.11 289.99 239.827 291.583 238.887C293.065 238.011 295.351 238.718 296.275 240.263C296.659 240.877 296.821 241.536 296.847 242.266C296.875 243.812 296.396 245.18 295.483 246.426C295.299 246.671 295.098 246.947 294.898 247.223C295.175 247.344 295.366 247.202 295.557 247.14C296.963 246.763 298.393 246.377 299.854 246.245C300.877 246.15 301.9 246.134 302.897 246.443C303.87 246.76 304.651 247.297 305.135 248.22C305.495 248.921 305.506 249.603 305.175 250.29C304.837 251.033 304.285 251.608 303.623 252.086C302.021 253.24 300.256 253.813 298.289 253.846C298.083 253.86 297.853 253.882 297.622 253.983C297.796 254.112 297.985 254.208 298.159 254.336C298.947 254.897 299.752 255.427 300.501 256.027C301.344 256.676 301.893 257.552 302.154 258.601C302.764 260.882 300.831 263.698 298.153 263.408C296.41 263.236 294.997 262.456 293.785 261.242C293.517 260.986 293.273 260.722 293.029 260.459C293.022 260.435 292.998 260.443 292.918 260.442C292.94 260.672 292.939 260.91 292.961 261.14C293.064 262.188 292.977 263.218 292.644 264.222C292.45 264.76 292.184 265.242 291.753 265.619C290.763 266.468 289.605 266.554 288.54 265.793C287.476 265.032 286.658 264.058 286.089 262.872C285.784 262.259 285.503 261.639 285.222 261.018C284.771 259.952 284.676 258.849 284.756 257.636C284.534 257.682 284.359 257.713 284.185 257.743C282.143 258.275 280.04 258.457 277.931 258.378C277.694 258.376 277.448 258.35 277.202 258.324C276.188 258.206 275.447 257.709 274.906 256.856C274.326 255.963 274.325 255.067 274.887 254.199C275.336 253.473 275.935 252.883 276.668 252.461C278.595 251.413 280.654 250.77 282.812 250.517C283.066 250.487 283.312 250.433 283.638 250.38C283.512 250.237 283.45 250.125 283.339 250.029C282.245 248.935 281.152 247.84 280.082 246.738C279.72 246.354 279.342 246.002 279.004 245.611C278.697 245.236 278.375 244.893 278.132 244.471C277.302 243.053 277.869 241.551 279.499 240.968C280.278 240.689 281.079 240.639 281.872 240.725C284.257 240.925 286.4 241.679 288.268 243.208C288.37 243.28 288.449 243.36 288.622 243.488Z" fill="#F7D046"/>
<path d="M290.859 256.26C289.557 256.627 288.121 256.444 286.82 255.579C285.957 255.005 285.41 254.169 285.164 253.166C285.011 252.555 285.059 251.925 285.24 251.319C285.679 249.809 286.609 248.721 288.012 248.026C288.583 247.738 289.178 247.556 289.809 247.487C290.717 247.386 291.563 247.556 292.337 248.033C293.153 248.531 293.767 249.221 294.151 250.087C294.408 250.664 294.467 251.271 294.396 251.898C294.317 252.573 294.138 253.224 293.833 253.836C293.249 255.005 292.305 255.768 290.859 256.26Z" fill="black"/>
<path d="M1610.49 248.868C1610.45 249.01 1610.43 249.073 1610.43 249.148C1610.24 250.595 1609.31 251.471 1608.1 252.076C1606.97 252.64 1605.34 252.007 1604.74 250.832C1604.49 250.364 1604.41 249.874 1604.42 249.34C1604.48 248.21 1604.9 247.235 1605.63 246.372C1605.78 246.203 1605.94 246.012 1606.1 245.82C1605.9 245.718 1605.76 245.811 1605.62 245.847C1604.57 246.051 1603.51 246.259 1602.43 246.281C1601.68 246.298 1600.93 246.258 1600.22 245.981C1599.53 245.701 1598.98 245.268 1598.68 244.569C1598.45 244.04 1598.48 243.541 1598.75 243.056C1599.04 242.531 1599.47 242.14 1599.98 241.824C1601.21 241.063 1602.52 240.735 1603.96 240.812C1604.11 240.812 1604.28 240.807 1604.46 240.745C1604.34 240.643 1604.2 240.562 1604.08 240.46C1603.54 240.01 1602.98 239.582 1602.46 239.106C1601.88 238.589 1601.52 237.921 1601.38 237.142C1601.05 235.446 1602.61 233.488 1604.55 233.837C1605.81 234.051 1606.81 234.693 1607.63 235.642C1607.81 235.842 1607.98 236.047 1608.14 236.252C1608.15 236.269 1608.16 236.265 1608.22 236.27C1608.22 236.1 1608.23 235.927 1608.23 235.758C1608.2 234.988 1608.32 234.24 1608.61 233.523C1608.78 233.141 1609 232.803 1609.34 232.549C1610.1 231.98 1610.95 231.976 1611.69 232.586C1612.43 233.196 1612.98 233.949 1613.33 234.844C1613.52 235.307 1613.7 235.774 1613.87 236.242C1614.14 237.043 1614.16 237.853 1614.04 238.735C1614.2 238.713 1614.33 238.699 1614.46 238.686C1615.98 238.402 1617.52 238.376 1619.06 238.542C1619.23 238.556 1619.41 238.587 1619.59 238.618C1620.32 238.757 1620.84 239.157 1621.19 239.808C1621.57 240.489 1621.52 241.143 1621.07 241.748C1620.7 242.255 1620.23 242.656 1619.68 242.927C1618.22 243.594 1616.68 243.958 1615.09 244.032C1614.91 244.041 1614.72 244.068 1614.48 244.09C1614.57 244.201 1614.61 244.286 1614.68 244.361C1615.43 245.217 1616.17 246.072 1616.89 246.931C1617.14 247.23 1617.4 247.506 1617.62 247.809C1617.83 248.098 1618.05 248.365 1618.2 248.686C1618.73 249.763 1618.24 250.831 1617.02 251.173C1616.44 251.338 1615.85 251.333 1615.28 251.23C1613.55 250.962 1612.02 250.302 1610.74 249.091C1610.67 249.033 1610.61 248.97 1610.49 248.868Z" fill="#F7D046"/>
<path d="M1609.51 239.427C1610.48 239.226 1611.52 239.433 1612.43 240.131C1613.03 240.594 1613.38 241.232 1613.51 241.977C1613.59 242.431 1613.53 242.889 1613.36 243.322C1612.96 244.402 1612.23 245.149 1611.17 245.585C1610.74 245.766 1610.29 245.868 1609.83 245.886C1609.16 245.913 1608.55 245.747 1608.01 245.358C1607.44 244.953 1607.03 244.418 1606.79 243.766C1606.64 243.332 1606.62 242.885 1606.71 242.431C1606.8 241.942 1606.96 241.476 1607.22 241.045C1607.7 240.221 1608.43 239.713 1609.51 239.427Z" fill="black"/>
<path d="M152.613 795.993C152.472 795.888 152.412 795.836 152.328 795.804C150.799 794.977 150.224 793.563 150.068 791.957C149.921 790.463 151.323 788.916 152.885 788.756C153.512 788.678 154.092 788.794 154.679 789.042C155.911 789.59 156.817 790.472 157.465 791.653C157.59 791.889 157.734 792.149 157.879 792.409C158.076 792.235 158.035 792.032 158.057 791.858C158.276 790.607 158.499 789.335 158.933 788.132C159.235 787.288 159.599 786.473 160.211 785.799C160.82 785.147 161.532 784.727 162.441 784.685C163.127 784.659 163.67 784.902 164.092 785.416C164.554 785.958 164.805 786.606 164.939 787.305C165.26 788.997 165.063 790.603 164.364 792.17C164.299 792.338 164.232 792.528 164.227 792.748C164.392 792.658 164.539 792.544 164.704 792.454C165.438 792.038 166.153 791.597 166.904 791.226C167.727 790.798 168.622 790.688 169.548 790.868C171.575 791.227 173.089 793.792 171.872 795.802C171.094 797.117 169.956 797.947 168.55 798.457C168.249 798.574 167.951 798.67 167.653 798.765C167.631 798.763 167.628 798.784 167.598 798.847C167.789 798.914 167.976 799.003 168.166 799.071C169.032 799.375 169.814 799.824 170.485 800.457C170.839 800.809 171.122 801.196 171.261 801.676C171.567 802.771 171.209 803.719 170.214 804.28C169.22 804.841 168.149 805.128 167.002 805.141C166.405 805.156 165.811 805.149 165.217 805.143C164.208 805.107 163.301 804.775 162.372 804.264C162.327 804.457 162.286 804.606 162.246 804.756C161.913 806.566 161.283 808.295 160.442 809.933C160.353 810.12 160.243 810.305 160.132 810.489C159.664 811.247 158.998 811.65 158.124 811.763C157.205 811.893 156.496 811.563 156.017 810.799C155.609 810.176 155.364 809.485 155.3 808.75C155.181 806.841 155.432 804.977 156.028 803.177C156.098 802.965 156.146 802.751 156.224 802.474C156.064 802.52 155.953 802.529 155.837 802.581C154.568 803.042 153.3 803.503 152.034 803.942C151.598 804.087 151.18 804.256 150.746 804.379C150.337 804.483 149.947 804.612 149.524 804.648C148.097 804.781 147.118 803.78 147.259 802.277C147.325 801.558 147.581 800.906 147.941 800.311C148.979 798.5 150.364 797.083 152.261 796.17C152.356 796.116 152.448 796.083 152.613 795.993Z" fill="#F7D046"/>
<path d="M163.535 798.934C163.344 800.099 162.67 801.166 161.507 801.876C160.735 802.347 159.873 802.471 158.99 802.295C158.45 802.191 157.969 801.921 157.557 801.554C156.526 800.651 156.008 799.514 155.976 798.15C155.959 797.592 156.034 797.055 156.213 796.53C156.467 795.776 156.913 795.169 157.576 794.733C158.271 794.272 159.042 794.041 159.868 794.056C160.419 794.066 160.921 794.243 161.39 794.531C161.895 794.842 162.343 795.223 162.714 795.69C163.423 796.582 163.678 797.61 163.535 798.934Z" fill="black"/>
<path fill-rule="evenodd" clip-rule="evenodd" d="M555.169 194.429V192.465C555.149 191.994 555.149 191.523 555.149 191.047C555.149 190.572 555.149 190.091 555.128 189.6C555.046 188.495 554.719 187.471 554.105 186.571C553.614 185.916 553.123 185.793 552.55 186.366C552.059 186.898 551.567 187.512 551.322 188.208C550.421 190.623 550.421 193.16 550.79 195.657C550.954 196.844 552.018 197.54 553.123 197.458C554.187 197.376 555.005 196.557 555.128 195.411C555.169 195.084 555.169 194.757 555.169 194.429ZM553.245 215.097C553.941 213.787 554.227 212.355 554.268 210.84L554.242 210.634C554.087 209.389 553.928 208.113 553.695 206.911C553.654 206.502 553.491 206.134 553.286 205.806C552.795 205.029 552.058 204.66 551.117 204.783C550.216 204.906 549.562 205.479 549.357 206.379C549.275 206.788 549.275 207.28 549.316 207.73C549.398 208.589 549.521 209.449 549.684 210.267C549.713 210.404 549.74 210.54 549.768 210.676L549.768 210.676C549.939 211.522 550.109 212.363 550.462 213.173C550.789 213.951 551.321 214.688 551.894 215.343C552.467 215.956 552.836 215.875 553.245 215.097ZM545.959 198.44C546.901 198.44 547.842 198.563 548.702 199.054C549.725 199.668 549.848 200.323 548.988 201.182C548.538 201.674 547.924 202.083 547.31 202.328C545.427 203.106 543.381 203.311 541.375 203.352C541.212 203.352 541.048 203.311 540.884 203.27L540.884 203.27C539.738 202.983 538.961 202.042 539.002 200.937C539.042 199.832 539.861 198.972 541.089 198.849C542.603 198.686 544.077 198.563 545.591 198.44H545.959ZM564.623 200.446C563.354 199.914 562.044 199.545 560.612 199.464C560.154 199.54 559.697 199.607 559.244 199.674C558.724 199.751 558.209 199.826 557.706 199.914C557.256 200.037 556.765 200.323 556.396 200.691C555.741 201.346 555.659 202.165 555.987 202.983C556.355 203.884 557.092 204.375 558.074 204.334C559.711 204.293 561.308 203.884 562.74 203.024C563.477 202.615 564.173 202.083 564.787 201.51C565.36 201.019 565.278 200.732 564.623 200.446Z" fill="black"/>
<path fill-rule="evenodd" clip-rule="evenodd" d="M1648.13 351.843V350.248C1648.11 349.866 1648.11 349.484 1648.11 349.097V349.097C1648.11 348.711 1648.11 348.321 1648.09 347.922C1648.03 347.025 1647.76 346.194 1647.26 345.463C1646.86 344.932 1646.46 344.832 1646 345.297C1645.6 345.729 1645.2 346.228 1645 346.792C1644.27 348.753 1644.27 350.813 1644.57 352.839C1644.7 353.803 1645.57 354.368 1646.46 354.301C1647.33 354.235 1647.99 353.57 1648.09 352.64C1648.13 352.374 1648.13 352.108 1648.13 351.843V351.843ZM1646.56 368.621C1647.13 367.557 1647.36 366.395 1647.39 365.165L1647.37 364.997L1647.37 364.997C1647.25 363.987 1647.12 362.952 1646.93 361.976C1646.89 361.644 1646.76 361.345 1646.6 361.079C1646.2 360.447 1645.6 360.148 1644.83 360.248C1644.1 360.348 1643.57 360.813 1643.41 361.544C1643.34 361.876 1643.34 362.275 1643.37 362.64C1643.44 363.338 1643.54 364.036 1643.67 364.7C1643.69 364.811 1643.72 364.922 1643.74 365.032C1643.88 365.718 1644.02 366.401 1644.3 367.059C1644.57 367.69 1645 368.288 1645.47 368.82C1645.93 369.318 1646.23 369.252 1646.56 368.621ZM1640.65 355.098C1641.41 355.098 1642.18 355.198 1642.88 355.597C1643.71 356.095 1643.81 356.627 1643.11 357.325C1642.74 357.723 1642.24 358.055 1641.75 358.255C1640.22 358.886 1638.56 359.052 1636.93 359.085C1636.8 359.085 1636.66 359.052 1636.53 359.019L1636.53 359.019C1635.6 358.786 1634.97 358.022 1635 357.125C1635.03 356.228 1635.7 355.53 1636.7 355.431C1637.92 355.298 1639.12 355.198 1640.35 355.098H1640.65ZM1655.8 356.727C1654.77 356.295 1653.71 355.996 1652.54 355.929C1652.17 355.991 1651.8 356.046 1651.43 356.1C1651.01 356.162 1650.59 356.224 1650.18 356.295C1649.82 356.394 1649.42 356.627 1649.12 356.926C1648.59 357.458 1648.52 358.122 1648.79 358.787C1649.09 359.517 1649.69 359.916 1650.48 359.883C1651.81 359.85 1653.11 359.517 1654.27 358.82C1654.87 358.488 1655.43 358.056 1655.93 357.59C1656.4 357.192 1656.33 356.959 1655.8 356.727Z" fill="black"/>
<path fill-rule="evenodd" clip-rule="evenodd" d="M235.453 523.619V521.377C235.43 520.84 235.43 520.303 235.43 519.76C235.43 519.217 235.43 518.668 235.406 518.108C235.313 516.847 234.939 515.679 234.239 514.652C233.678 513.904 233.118 513.764 232.464 514.418C231.903 515.025 231.343 515.726 231.063 516.52C230.035 519.275 230.035 522.171 230.455 525.02C230.642 526.375 231.857 527.169 233.118 527.076C234.332 526.982 235.266 526.048 235.406 524.74C235.453 524.367 235.453 523.993 235.453 523.619ZM233.253 547.207C234.047 545.712 234.374 544.077 234.42 542.349L234.391 542.113C234.214 540.693 234.032 539.237 233.767 537.865C233.72 537.398 233.533 536.978 233.3 536.604C232.739 535.717 231.898 535.296 230.824 535.437C229.797 535.577 229.049 536.231 228.816 537.258C228.722 537.725 228.722 538.286 228.769 538.8C228.862 539.78 229.002 540.761 229.189 541.695C229.222 541.851 229.253 542.007 229.285 542.162C229.48 543.127 229.675 544.086 230.077 545.012C230.45 545.899 231.058 546.74 231.711 547.487C232.365 548.188 232.786 548.094 233.253 547.207ZM224.942 528.196C226.016 528.196 227.09 528.337 228.071 528.897C229.239 529.598 229.379 530.345 228.398 531.326C227.884 531.886 227.184 532.353 226.483 532.634C224.335 533.521 221.999 533.755 219.711 533.801C219.524 533.801 219.337 533.755 219.15 533.708C217.842 533.381 216.955 532.307 217.002 531.046C217.048 529.784 217.983 528.804 219.384 528.664C221.112 528.477 222.793 528.337 224.522 528.196H224.942ZM246.24 530.485C244.792 529.878 243.298 529.458 241.663 529.364C241.141 529.451 240.619 529.528 240.102 529.604C239.508 529.692 238.921 529.778 238.347 529.878C237.833 530.018 237.272 530.345 236.852 530.765C236.105 531.513 236.011 532.447 236.385 533.381C236.805 534.409 237.646 534.969 238.767 534.922C240.635 534.876 242.457 534.409 244.092 533.428C244.932 532.961 245.726 532.354 246.427 531.7C247.081 531.139 246.988 530.812 246.24 530.485Z" fill="black"/>
<path fill-rule="evenodd" clip-rule="evenodd" d="M1673.88 775.322V773.149C1673.86 772.629 1673.86 772.108 1673.86 771.582V771.582C1673.86 771.056 1673.86 770.524 1673.83 769.981C1673.74 768.759 1673.38 767.627 1672.7 766.631C1672.16 765.907 1671.62 765.771 1670.98 766.405C1670.44 766.993 1669.9 767.672 1669.63 768.442C1668.63 771.112 1668.63 773.919 1669.04 776.68C1669.22 777.992 1670.39 778.762 1671.62 778.671C1672.79 778.581 1673.7 777.675 1673.83 776.408C1673.88 776.046 1673.88 775.684 1673.88 775.322V775.322ZM1671.75 798.18C1672.52 796.731 1672.84 795.147 1672.88 793.472L1672.85 793.244C1672.68 791.867 1672.51 790.457 1672.25 789.127C1672.2 788.675 1672.02 788.267 1671.8 787.905C1671.25 787.045 1670.44 786.638 1669.4 786.774C1668.4 786.909 1667.68 787.543 1667.45 788.539C1667.36 788.992 1667.36 789.535 1667.4 790.033C1667.5 790.983 1667.63 791.934 1667.81 792.839C1667.84 792.99 1667.87 793.14 1667.9 793.291C1668.09 794.226 1668.28 795.156 1668.67 796.052C1669.03 796.912 1669.62 797.727 1670.26 798.451C1670.89 799.13 1671.3 799.04 1671.75 798.18ZM1663.7 779.757C1664.74 779.757 1665.78 779.893 1666.73 780.436C1667.86 781.115 1668 781.839 1667.05 782.79C1666.55 783.333 1665.87 783.786 1665.19 784.057C1663.11 784.917 1660.84 785.144 1658.63 785.189C1658.45 785.189 1658.26 785.144 1658.08 785.098C1656.82 784.781 1655.96 783.74 1656 782.518C1656.05 781.296 1656.95 780.346 1658.31 780.21C1659.98 780.029 1661.61 779.893 1663.29 779.757H1663.7ZM1684.34 781.975C1682.93 781.387 1681.48 780.98 1679.9 780.889C1679.39 780.973 1678.89 781.048 1678.39 781.122C1677.81 781.206 1677.24 781.29 1676.69 781.387C1676.19 781.523 1675.65 781.84 1675.24 782.247C1674.51 782.971 1674.42 783.876 1674.79 784.782C1675.19 785.777 1676.01 786.321 1677.09 786.275C1678.9 786.23 1680.67 785.777 1682.25 784.827C1683.07 784.374 1683.84 783.786 1684.52 783.152C1685.15 782.609 1685.06 782.292 1684.34 781.975Z" fill="black"/>
<path d="M1298.91 496.425C1241.53 472.501 1208.47 496.093 1235.06 542.037C1259.05 583.506 1301.62 585.553 1327.32 546.518C1338.2 530.023 1325.41 507.475 1298.91 496.425Z" fill="#F8F5F4"/>
<path d="M384.621 584.352C389.641 584.485 393.857 585.623 397.471 588.3C402.825 592.182 405.502 597.469 405.168 604.162C405.034 606.705 403.963 608.914 402.29 610.788C399.412 614.067 395.664 615.673 391.314 616.209C390.912 616.276 390.578 616.276 390.176 616.209C385.826 615.473 381.542 614.67 377.661 612.461C372.641 609.449 370.031 604.965 370.098 599.076C370.232 592.316 375.519 585.958 381.944 584.619C383.015 584.418 384.086 584.418 384.621 584.352ZM385.09 591.647C384.153 591.847 383.149 591.914 382.279 592.249C378.196 593.922 376.322 599.343 378.531 603.158C379.267 604.497 380.405 605.501 381.743 606.17C384.286 607.441 387.03 608.245 389.841 608.512C391.18 608.646 392.652 608.378 393.924 607.843C397.003 606.638 398.274 604.296 397.605 601.217C397.003 598.406 395.597 595.997 393.188 594.324C390.845 592.717 388.101 591.914 385.09 591.647Z" fill="#EA552B"/>
<path d="M391.451 568.289C394.195 568.557 397.006 568.624 399.75 569.025C406.108 570.029 411.261 573.309 415.143 578.395C420.23 584.954 422.974 592.45 423.241 600.816C423.375 604.028 422.706 607.107 421.434 610.052C420.23 612.796 418.757 615.406 416.816 617.748C410.324 625.512 402.427 631 392.187 632.405C385.294 633.342 378.467 632.941 371.975 630.531C367.491 628.791 363.408 626.315 359.794 623.169C358.59 622.098 357.586 620.693 356.716 619.287C354.373 615.339 352.968 610.989 351.696 606.638C351.295 605.3 351.362 603.76 351.362 602.355C351.362 593.387 354.574 585.757 361.267 579.667C368.896 572.773 377.798 568.824 388.238 568.49C389.309 568.49 390.38 568.49 391.451 568.49C391.451 568.423 391.451 568.356 391.451 568.289ZM391.317 575.785C382.55 575.517 374.786 578.261 367.96 583.682C365.149 585.958 362.739 588.568 361.133 591.914C357.452 599.611 358.188 607.04 362.471 614.268C363.141 615.406 364.145 616.343 365.215 617.146C366.956 618.484 368.763 619.689 370.637 620.827C375.656 623.905 381.01 625.646 387.034 625.378C398.679 624.842 407.179 619.287 413.269 609.717C414.005 608.579 414.541 607.374 414.942 606.103C415.411 604.697 415.745 603.158 415.812 601.753C415.812 594.458 413.403 587.966 408.852 582.411C405.907 578.864 402.092 576.722 397.407 576.253C395.4 575.986 393.325 575.919 391.317 575.785Z" fill="#EE8DB9"/>
<path d="M381.473 647.999C375.918 647.999 371.3 647.262 366.883 645.455C364.005 644.251 361.395 642.578 359.12 640.369C356.041 637.357 352.829 634.346 349.683 631.401C349.415 631.133 349.081 630.932 348.813 630.665C347.742 629.661 346.47 628.724 345.6 627.519C341.116 621.429 337.703 614.803 336.833 607.106C336.097 600.614 337.168 594.39 339.644 588.434C341.585 583.682 344.061 579.265 347.34 575.383C350.687 571.434 354.502 568.222 359.053 565.745C364.474 562.934 369.962 560.257 375.718 558.116C383.95 555.104 392.516 553.899 401.284 554.234C404.496 554.368 407.575 555.104 410.386 556.643C413.732 558.45 417.078 560.324 420.157 562.466C426.649 566.883 430.598 573.308 433.141 580.536C436.755 590.843 437.157 601.417 434.279 611.992C433.676 614.201 432.873 616.409 431.869 618.417C427.184 627.653 420.559 635.082 411.189 639.9C401.551 644.853 391.445 647.53 381.473 647.999ZM381.339 640.57C390.508 640.034 399.677 637.558 408.311 633.074C415.338 629.393 420.358 623.771 424.24 617.011C425.377 615.004 426.381 612.795 426.984 610.52C429.594 601.016 429.259 591.512 425.779 582.276C423.704 576.788 420.693 571.903 415.673 568.489C412.996 566.682 410.118 565.076 407.24 563.47C405.032 562.265 402.622 561.73 400.146 561.663C392.449 561.529 384.887 562.6 377.658 565.344C372.572 567.285 367.619 569.694 362.801 572.237C359.053 574.245 355.907 576.855 353.163 580.068C350.419 583.28 348.411 586.894 346.738 590.776C344.195 596.666 343.325 602.689 344.663 608.98C345.266 611.791 346.069 614.401 348.344 616.476C349.415 617.48 350.218 618.818 351.021 620.023C351.758 621.094 352.427 622.165 353.029 623.303C354.033 625.043 355.305 626.515 356.777 627.854C359.12 629.995 361.529 632.204 363.738 634.479C366.08 636.822 368.824 638.361 371.903 639.298C374.848 640.235 377.792 640.57 381.339 640.57Z" fill="#F7D046"/>
<path d="M1457.76 -9.09766C1461.23 -9.00492 1464.15 -8.21665 1466.66 -6.36191C1470.37 -3.67253 1472.22 -0.00940704 1471.99 4.62746C1471.9 6.38946 1471.16 7.91963 1470 9.21795C1468 11.49 1465.41 12.6029 1462.39 12.9738C1462.11 13.0202 1461.88 13.0202 1461.6 12.9738C1458.59 12.4638 1455.62 11.9073 1452.93 10.3772C1449.46 8.29058 1447.65 5.18388 1447.69 1.10344C1447.79 -3.57979 1451.45 -7.98481 1455.9 -8.91218C1456.64 -9.05129 1457.38 -9.05129 1457.76 -9.09766ZM1458.08 -4.04348C1457.43 -3.90437 1456.74 -3.858 1456.13 -3.62616C1453.3 -2.46694 1452.01 1.28891 1453.54 3.93193C1454.05 4.8593 1454.83 5.55483 1455.76 6.01851C1457.52 6.89952 1459.42 7.45594 1461.37 7.64141C1462.3 7.73415 1463.32 7.54868 1464.2 7.17773C1466.33 6.34309 1467.21 4.72019 1466.75 2.58724C1466.33 0.639754 1465.36 -1.02952 1463.69 -2.18873C1462.07 -3.30158 1460.17 -3.858 1458.08 -4.04348Z" fill="#EA552B"/>
<path d="M1462.49 -20.2266C1464.39 -20.0411 1466.34 -19.9947 1468.24 -19.7165C1472.64 -19.021 1476.21 -16.7489 1478.9 -13.2249C1482.43 -8.68078 1484.33 -3.48749 1484.51 2.30858C1484.61 4.53428 1484.14 6.66724 1483.26 8.70745C1482.43 10.6086 1481.41 12.4169 1480.06 14.0398C1475.56 19.4186 1470.09 23.2208 1463 24.1946C1458.22 24.8437 1453.49 24.5655 1449 22.8963C1445.89 21.6907 1443.06 19.975 1440.56 17.7957C1439.72 17.0538 1439.03 16.0801 1438.42 15.1063C1436.8 12.3706 1435.83 9.35662 1434.95 6.34266C1434.67 5.41528 1434.71 4.3488 1434.71 3.37506C1434.71 -2.83833 1436.94 -8.12435 1441.58 -12.3439C1446.86 -17.1199 1453.03 -19.8556 1460.26 -20.0875C1461 -20.0875 1461.75 -20.0875 1462.49 -20.0875C1462.49 -20.1338 1462.49 -20.1802 1462.49 -20.2266ZM1462.4 -15.0333C1456.32 -15.2188 1450.94 -13.3176 1446.21 -9.56178C1444.27 -7.98525 1442.6 -6.17687 1441.48 -3.85844C1438.93 1.47395 1439.44 6.62086 1442.41 11.6287C1442.87 12.4169 1443.57 13.0661 1444.31 13.6225C1445.52 14.5499 1446.77 15.3845 1448.07 16.1728C1451.55 18.3058 1455.26 19.5113 1459.43 19.3259C1467.5 18.9549 1473.39 15.1063 1477.6 8.47561C1478.11 7.68735 1478.49 6.85271 1478.76 5.97171C1479.09 4.99796 1479.32 3.93149 1479.37 2.95775C1479.37 -2.09643 1477.7 -6.59419 1474.54 -10.4428C1472.5 -12.9003 1469.86 -14.3841 1466.62 -14.7087C1465.22 -14.8942 1463.79 -14.9405 1462.4 -15.0333Z" fill="#EE8DB9"/>
<path d="M1455.58 35C1451.73 35 1448.53 34.4899 1445.47 33.238C1443.47 32.4034 1441.66 31.2441 1440.09 29.714C1437.96 27.6274 1435.73 25.5408 1433.55 23.5006C1433.36 23.3151 1433.13 23.176 1432.95 22.9905C1432.21 22.295 1431.32 21.6458 1430.72 20.8112C1427.62 16.5917 1425.25 12.0012 1424.65 6.66878C1424.14 2.17102 1424.88 -2.14126 1426.6 -6.26807C1427.94 -9.56024 1429.66 -12.6206 1431.93 -15.31C1434.25 -18.0457 1436.89 -20.2714 1440.04 -21.987C1443.8 -23.9345 1447.6 -25.7893 1451.59 -27.2731C1457.29 -29.3596 1463.23 -30.1943 1469.3 -29.9624C1471.53 -29.8697 1473.66 -29.3596 1475.61 -28.2932C1477.93 -27.0412 1480.24 -25.7429 1482.38 -24.2591C1486.87 -21.1988 1489.61 -16.7474 1491.37 -11.7396C1493.88 -4.5988 1494.15 2.72744 1492.16 10.0537C1491.74 11.5839 1491.19 13.114 1490.49 14.5051C1487.25 20.9039 1482.65 26.0509 1476.16 29.3894C1469.49 32.8207 1462.48 34.6754 1455.58 35ZM1455.48 29.8531C1461.84 29.4821 1468.19 27.7665 1474.17 24.6598C1479.04 22.1095 1482.52 18.2146 1485.2 13.5313C1485.99 12.1403 1486.69 10.6101 1487.11 9.03357C1488.91 2.44923 1488.68 -4.13511 1486.27 -10.534C1484.83 -14.3362 1482.75 -17.7211 1479.27 -20.0859C1477.42 -21.3379 1475.42 -22.4507 1473.43 -23.5636C1471.9 -24.3982 1470.23 -24.7691 1468.51 -24.8155C1463.18 -24.9083 1457.94 -24.1664 1452.93 -22.2652C1449.41 -20.9206 1445.98 -19.2513 1442.64 -17.4893C1440.04 -16.0982 1437.86 -14.2898 1435.96 -12.0641C1434.06 -9.83845 1432.67 -7.33455 1431.51 -4.64517C1429.75 -0.56473 1429.15 3.60845 1430.07 7.9671C1430.49 9.91458 1431.05 11.723 1432.62 13.1604C1433.36 13.8559 1433.92 14.7833 1434.48 15.6179C1434.99 16.3598 1435.45 17.1017 1435.87 17.89C1436.56 19.0956 1437.45 20.1157 1438.47 21.043C1440.09 22.5268 1441.76 24.057 1443.29 25.6335C1444.91 27.2564 1446.81 28.3229 1448.94 28.9721C1450.98 29.6212 1453.03 29.8531 1455.48 29.8531Z" fill="#F7D046"/>
</g>
<defs>
<clipPath id="clip0_1348_14784">
<rect width="1920" height="960" fill="white"/>
</clipPath>
</defs>
</svg>
